# Blender 4.4.3
# www.blender.org
mtllib EasyRoadParvement.mtl
o Cube
v -0.353808 -0.165665 -1.276321
v -0.352289 0.041001 -1.164542
v 0.353808 -0.165665 -1.276321
v 0.352289 0.041001 -1.164542
v 0.500000 0.165665 -1.000000
v 0.500000 -0.165665 -1.000000
v -0.500000 0.165665 -1.000000
v -0.500000 -0.165665 -1.000000
v 0.500000 -0.165665 0.000000
v -0.500000 0.165665 0.000000
v -0.500000 -0.165665 0.000000
v 0.500000 0.165665 0.000000
v 0.500000 -0.165665 -0.846779
v -0.500000 0.165665 -0.846779
v -0.500000 -0.165665 -0.846779
v 0.500000 0.165665 -0.846779
v -0.353808 -0.165665 1.276321
v -0.352289 0.041001 1.164542
v 0.353808 -0.165665 1.276321
v 0.352289 0.041001 1.164542
v 0.500000 0.165665 1.000000
v 0.500000 -0.165665 1.000000
v -0.500000 0.165665 1.000000
v -0.500000 -0.165665 1.000000
v 0.500000 -0.165665 0.846779
v -0.500000 0.165665 0.846779
v -0.500000 -0.165665 0.846779
v 0.500000 0.165665 0.846779
vn -0.0000 1.0000 -0.0000
vn -1.0000 -0.0000 -0.0000
vn -0.0000 -1.0000 -0.0000
vn 0.8097 0.1216 -0.5742
vn -0.8097 0.1216 -0.5742
vn 1.0000 -0.0000 -0.0000
vn -0.0000 0.4757 -0.8796
vn -0.0000 0.7971 -0.6039
vn 0.8097 0.1216 0.5742
vn -0.8097 0.1216 0.5742
vn -0.0000 0.4757 0.8796
vn -0.0000 0.7971 0.6039
vt 0.855847 0.500000
vt 0.875000 0.500000
vt 0.875000 0.750000
vt 0.855847 0.750000
vt 0.375000 0.980847
vt 0.625000 0.980847
vt 0.625000 1.000000
vt 0.375000 1.000000
vt 0.000000 0.000000
vt 0.625000 0.250000
vt 0.375000 0.250000
vt 0.375000 0.269153
vt 0.625000 0.269153
vt 0.625000 0.375000
vt 0.375000 0.375000
vt 0.375000 0.000000
vt 0.625000 0.000000
vt 0.375000 0.875000
vt 0.625000 0.875000
vt 0.750000 0.500000
vt 0.750000 0.750000
s 0
usemtl Material
f 16/1/1 5/2/1 7/3/1 14/4/1
f 15/5/2 14/6/2 7/7/2 8/8/2
f 6/9/3 8/9/3 1/9/3 3/9/3
f 5/10/4 6/11/4 3/11/4 4/10/4
f 8/8/5 7/7/5 2/7/5 1/8/5
f 13/12/6 16/13/6 12/14/6 9/15/6
f 1/16/7 2/17/7 4/10/7 3/11/7
f 7/3/8 5/2/8 4/2/8 2/3/8
f 6/11/6 5/10/6 16/13/6 13/12/6
f 11/18/2 10/19/2 14/6/2 15/5/2
f 12/20/1 16/1/1 14/4/1 10/21/1
f 28/1/1 26/4/1 23/3/1 21/2/1
f 27/5/2 24/8/2 23/7/2 26/6/2
f 22/9/3 19/9/3 17/9/3 24/9/3
f 21/10/9 20/10/9 19/11/9 22/11/9
f 24/8/10 17/8/10 18/7/10 23/7/10
f 25/12/6 9/15/6 12/14/6 28/13/6
f 17/16/11 19/11/11 20/10/11 18/17/11
f 23/3/12 18/3/12 20/2/12 21/2/12
f 22/11/6 25/12/6 28/13/6 21/10/6
f 11/18/2 27/5/2 26/6/2 10/19/2
f 12/20/1 10/21/1 26/4/1 28/1/1
