# Blender 4.4.3
# www.blender.org
mtllib RailCrossRoaldTest.mtl
o Plane
v -1.000000 0.000000 1.000000
v 1.000000 0.000000 1.000000
v -1.200079 -0.034165 0.423710
v -1.200079 0.034165 0.423710
v -1.200079 -0.034165 0.376290
v -1.200079 0.034165 0.376290
v 1.200079 -0.034165 0.423710
v 1.200079 0.034165 0.423710
v 1.200079 -0.034165 0.376290
v 1.200079 0.034165 0.376290
v -1.000000 0.000000 0.000000
v 1.000000 0.000000 0.000000
v -1.000000 0.000000 -1.000000
v 1.000000 0.000000 -1.000000
v -1.200079 -0.034165 -0.423710
v -1.200079 0.034165 -0.423710
v -1.200079 -0.034165 -0.376290
v -1.200079 0.034165 -0.376290
v 1.200079 -0.034165 -0.423710
v 1.200079 0.034165 -0.423710
v 1.200079 -0.034165 -0.376290
v 1.200079 0.034165 -0.376290
vn -0.0000 -0.0000 -1.0000
vn -0.0000 -0.0000 1.0000
vn -0.0000 1.0000 -0.0000
vt 0.375000 0.250000
vt 0.625000 0.250000
vt 0.625000 0.500000
vt 0.375000 0.500000
vt 0.375000 0.750000
vt 0.625000 0.750000
vt 0.625000 1.000000
vt 0.375000 1.000000
vt 0.875000 0.500000
vt 0.875000 0.750000
vt 0.000000 0.000000
vt 1.000000 0.000000
vt 1.000000 0.500000
vt 0.000000 0.500000
s 0
f 5/1/1 6/2/1 10/3/1 9/4/1
f 7/5/2 8/6/2 4/7/2 3/8/2
f 10/3/3 6/9/3 4/10/3 8/6/3
f 1/11/3 2/12/3 12/13/3 11/14/3
f 17/1/2 21/4/2 22/3/2 18/2/2
f 19/5/1 15/8/1 16/7/1 20/6/1
f 22/3/3 20/6/3 16/10/3 18/9/3
f 13/11/3 11/14/3 12/13/3 14/12/3
