# Blender 4.1.1
# www.blender.org
mtllib PointerArrow.mtl
o Arrow
v -0.000000 -1.203301 -0.595088
v -0.000000 -1.754270 -0.867932
v -1.797491 -1.375215 1.395898
v -1.000000 -1.379875 1.391720
v -1.000000 -0.504311 1.893895
v -1.000000 0.504310 1.893894
v 1.797491 -0.943717 0.957924
v 1.000000 -0.946986 0.955122
v 1.000000 -0.346603 1.299639
v 1.000000 0.346602 1.299639
v -1.000000 0.346603 1.299639
v -1.000000 -0.346603 1.299639
v -1.000000 -0.946986 0.955122
v -1.797491 -0.943717 0.957924
v 1.000000 0.504310 1.893894
v 1.000000 -0.504311 1.893894
v 1.000000 -1.379875 1.391720
v 1.797491 -1.375215 1.395897
v -0.449373 -1.938695 -0.285227
v -0.898746 -1.930969 0.324494
v -1.348118 -1.736290 0.903685
v -1.348118 -1.191030 0.619605
v -0.898745 -1.324521 0.223337
v -0.449373 -1.330300 -0.196535
v 1.348118 -1.736290 0.903685
v 0.898745 -1.930969 0.324494
v 0.449373 -1.938696 -0.285227
v 0.449373 -1.330301 -0.196535
v 0.898745 -1.324521 0.223337
v 1.348118 -1.191030 0.619605
vn -0.7533 0.1958 -0.6278
vn 0.7533 -0.3909 -0.5288
vn -0.0066 0.7112 0.7029
vn 1.0000 -0.0000 -0.0000
vn -0.0000 0.9665 -0.2565
vn -0.0000 -0.9534 -0.3017
vn -0.0000 0.6674 -0.7447
vn -0.0000 -0.4975 0.8675
vn -0.0000 -0.0000 1.0000
vn -1.0000 -0.0000 -0.0000
vn 0.0066 0.7112 0.7029
vn -0.0000 0.9528 0.3036
vn -0.0000 -0.6508 0.7592
vn -0.0000 0.4977 -0.8673
vn -0.0000 -0.0000 -1.0000
vn -0.7533 -0.3909 -0.5288
vn -0.7532 -0.2087 -0.6238
vn -0.7534 -0.0067 -0.6575
vn 0.7533 0.1958 -0.6278
vn 0.7534 -0.0067 -0.6575
vn 0.7532 -0.2087 -0.6238
vn -0.0000 -0.8063 0.5915
vn -0.0000 -0.9479 0.3186
vn -0.0000 -0.9999 0.0127
vn -0.0000 0.8073 -0.5901
vn -0.0000 0.9477 -0.3192
vn -0.0000 0.9999 -0.0138
vt 0.375000 0.241071
vt 0.625000 0.241071
vt 0.625000 0.250000
vt 0.375000 0.250000
vt 0.375000 0.526786
vt 0.625000 0.526786
vt 0.625000 0.535714
vt 0.375000 0.535714
vt 0.625000 0.571429
vt 0.375000 0.571429
vt 0.625000 0.607143
vt 0.375000 0.607143
vt 0.625000 0.642857
vt 0.375000 0.642857
vt 0.625000 0.107143
vt 0.125000 0.642857
vt 0.375000 0.500000
vt 0.375000 0.508929
vt 0.312500 0.508929
vt 0.125000 0.535714
vt 0.125000 0.571429
vt 0.125000 0.607143
vt 0.375000 0.107143
vt 0.625000 0.142857
vt 0.375000 0.142857
vt 0.625000 0.178571
vt 0.375000 0.178571
vt 0.625000 0.214286
vt 0.375000 0.214286
vt 0.875000 0.500000
vt 0.875000 0.508929
vt 0.812500 0.508929
vt 0.875000 0.535714
vt 0.875000 0.571429
vt 0.875000 0.607143
vt 0.875000 0.642857
vt 0.625000 0.223214
vt 0.375000 0.223214
vt 0.625000 0.232143
vt 0.375000 0.232143
vt 0.625000 0.500000
vt 0.625000 0.508929
vt 0.625000 0.517857
vt 0.375000 0.517857
vt 0.187500 0.526786
vt 0.250000 0.517857
vt 0.687500 0.526786
vt 0.875000 0.526786
vt 0.750000 0.517857
vt 0.875000 0.517857
s 0
usemtl Material
f 19/1/1 24/2/1 1/3/1 2/4/1
f 25/5/2 30/6/2 7/7/2 18/8/2
f 18/8/3 7/7/3 8/9/3 17/10/3
f 17/10/4 8/9/4 9/11/4 16/12/4
f 16/12/4 9/11/4 10/13/4 15/14/4
f 15/14/5 10/13/5 11/15/5 6/16/5
f 2/17/6 27/18/6 19/19/6
f 3/20/7 18/8/7 17/10/7 4/21/7
f 4/21/8 17/10/8 16/12/8 5/22/8
f 5/22/9 16/12/9 15/14/9 6/16/9
f 6/23/10 11/15/10 12/24/10 5/25/10
f 5/25/10 12/24/10 13/26/10 4/27/10
f 4/27/11 13/26/11 14/28/11 3/29/11
f 1/30/12 24/31/12 28/32/12
f 7/7/13 14/33/13 13/34/13 8/9/13
f 8/9/14 13/34/14 12/35/14 9/11/14
f 9/11/15 12/35/15 11/36/15 10/13/15
f 3/29/16 14/28/16 22/37/16 21/38/16
f 21/38/17 22/37/17 23/39/17 20/40/17
f 20/40/18 23/39/18 24/2/18 19/1/18
f 2/17/19 1/41/19 28/42/19 27/18/19
f 27/18/20 28/42/20 29/43/20 26/44/20
f 26/44/21 29/43/21 30/6/21 25/5/21
f 21/45/22 25/5/22 18/8/22 3/20/22
f 20/46/23 26/44/23 25/5/23 21/45/23
f 19/19/24 27/18/24 26/44/24 20/46/24
f 30/47/25 22/48/25 14/33/25 7/7/25
f 29/49/26 23/50/26 22/48/26 30/47/26
f 28/32/27 24/31/27 23/50/27 29/49/27
